Coordinates
version=1
nRows=5
nColumns=40
inDegrees=yes

Units are S.I. units (second, meters, Newtons, ...)
If the header above contains a line with 'inDegrees', this indicates whether rotational values are in degrees (yes) or radians (no).

endheader
time	pelvis_tilt	pelvis_list	pelvis_rotation	pelvis_tx	pelvis_ty	pelvis_tz	hip_flexion_r	hip_adduction_r	hip_rotation_r	knee_angle_r	knee_angle_r_beta	ankle_angle_r	subtalar_angle_r	mtp_angle_r	hip_flexion_l	hip_adduction_l	hip_rotation_l	knee_angle_l	knee_angle_l_beta	ankle_angle_l	subtalar_angle_l	mtp_angle_l	lumbar_extension	lumbar_bending	lumbar_rotation	arm_flex_r	arm_add_r	arm_rot_r	elbow_flex_r	pro_sup_r	wrist_flex_r	wrist_dev_r	arm_flex_l	arm_add_l	arm_rot_l	elbow_flex_l	pro_sup_l	wrist_flex_l	wrist_dev_l
     13.59999999999999964473	     12.14851395529517219529	     -3.94729159135918639123	   -179.19567453926350708571	      0.31058257737593902847	      0.71525269021597182029	     -0.95506617509790114884	     68.93205917537014215668	    -47.54871554717637849308	     -8.69561045078193650681	     63.45610708414717038295	      1.10751799911646653385	     -1.11931208630237444268	      0.00000000000000000000	      0.00000000000000000000	     61.11897731751436424474	    -39.10472796503354686593	    -12.62940441827738347058	     63.57492213965768002026	      1.10959171303606485282	      4.94782832194868138487	      0.00000000000000000000	      0.00000000000000000000	    -62.68530898440690179996	     -0.25797312468344046898	     -3.14052844008000064946	     56.03288434835867803940	    -10.85863705837774517704	     41.23581548085285675143	      7.10421270034423191220	     32.74581749165726307638	      0.00000000000000000000	      0.00000000000000000000	     63.95753319165682171388	    -13.33210940993514626030	     42.89945463500190214745	     16.56461013215664124232	     81.69259633367704509510	      0.00000000000000000000	      0.00000000000000000000
     13.60500000000000042633	     12.21491785908060023758	     -3.91681553987986319498	   -179.17081008073560610683	      0.31098776849502057784	      0.71569864981115338676	     -0.95497568449732828100	     68.87319166929877667371	    -47.52308457210604331067	     -8.82411839413149934330	     63.32002409487765959284	      1.10514290289775751752	     -1.20823707089615850485	      0.00000000000000000000	      0.00000000000000000000	     61.17062522901516530283	    -39.02381034801783243893	    -12.56029487411560729981	     63.43880998117984404416	      1.10721610771863021583	      4.86521599133171456231	      0.00000000000000000000	      0.00000000000000000000	    -62.67590431481743706854	     -0.20419150142635356104	     -3.14022168355982778110	     56.10087759486729197533	    -10.84254385822741184597	     41.25522659990168961031	      7.10022368373680023979	     32.74077194791488665260	      0.00000000000000000000	      0.00000000000000000000	     64.02864550652115838147	    -13.33415255444841562849	     42.88043453281689920686	     16.55169049559370009206	     81.72544243950272857546	      0.00000000000000000000	      0.00000000000000000000
     13.60999999999999943157	     12.26360736913030180517	     -3.94198868817622560812	   -179.06678084855397514730	      0.31127062026269097794	      0.71610833357987280223	     -0.95477487701297392153	     68.85823721952934306501	    -47.66086159696841662026	     -8.96848146825581515884	     63.26019705362749334654	      1.10409872404621567377	     -1.22856546869141802780	      0.00000000000000000000	      0.00000000000000000000	     61.22115567386232015679	    -38.85423744689273206632	    -12.50354399505439850770	     63.37136952915865606428	      1.10603904978182732144	      4.81392727671810671808	      0.00000000000000000000	      0.00000000000000000000	    -62.66370766128581237808	     -0.12270277888615623019	     -3.20286013394890778372	     56.11365188347692622983	    -10.85960918271464592522	     41.25395206494361843852	      7.06968350102050990813	     32.73576097348328062253	      0.00000000000000000000	      0.00000000000000000000	     64.07045899730933058436	    -13.30962318073766503801	     42.88281988292261104334	     16.55293836016183561810	     81.75635602042854088722	      0.00000000000000000000	      0.00000000000000000000
     13.61500000000000021316	     12.39415181432266876982	     -3.78127943355301709971	   -179.14214025019876430633	      0.31172273447315224093	      0.71636619425281711226	     -0.95493665832193497245	     68.78049944714081220809	    -47.44365594807612751538	     -9.19899306035129527004	     63.11418617373753647826	      1.10155035344840190881	     -1.48767894926724353333	      0.00000000000000000000	      0.00000000000000000000	     61.44135931045340726087	    -39.00125454639686495284	    -12.37841614507728671413	     63.28293780396864320892	      1.10449562501404274784	      4.64042834331925124758	      0.00000000000000000000	      0.00000000000000000000	    -62.57885357328175501834	     -0.09297562378474849565	     -2.98123712415885844251	     56.07201942811589390203	    -10.98374296931923588261	     41.28036897672776461832	      7.48661157812276201184	     32.76731096439209522941	      0.00000000000000000000	      0.00000000000000000000	     64.01019907099163219755	    -13.33995962646834776422	     42.80821510580359046116	     16.80257649947817455427	     80.95029440739263293381	      0.00000000000000000000	      0.00000000000000000000
     13.61999999999999921840	     12.33325905493329521789	     -3.79033465197293750748	   -179.18363618849505769504	      0.31203860769132629738	      0.71708806312158246410	     -0.95497086680089537936	     68.58686268961110954478	    -47.37765482485649926048	     -9.29325428458640168117	     62.91301499427738264103	      1.09803925400670188139	     -1.57206417471845760758	      0.00000000000000000000	      0.00000000000000000000	     61.26274348794227364579	    -39.01892440553669416659	    -12.53312689704823590375	     63.14020603629679584401	      1.10200448572097742250	      4.52271739404117756322	      0.00000000000000000000	      0.00000000000000000000	    -62.70884427310434716674	     -0.11702591485940680438	     -2.94267438825719640505	     56.17214657699467039720	    -11.04488556489773642966	     41.43726636975997479340	      7.27812929811276543290	     32.70297450911444059329	      0.00000000000000000000	      0.00000000000000000000	     64.16510596378586228639	    -13.26385132989837067896	     42.87163620102532490819	     16.67976977404341809574	     80.50534576404290021401	      0.00000000000000000000	      0.00000000000000000000
